# xmcd CD database file
#
# Track frame offsets:
#	182
#	22482
#	36720
#	50642
#	69130
#	84105
#	110012
#	126650
#	137725
#
# Disc length: 1989 seconds
#
# Revision: 0
# Processed by: cddbd v1.4PL0 Copyright (c) Steve Scherf et al.
# Submitted via: Feurio! 1.65 - http://www.feurio.com
#
DISCID=8807c309
DTITLE=Tramp - Put A Record On
DYEAR=1900
DGENRE=Blues
TTITLE0=Too Late For That Now
TTITLE1=Now I Ain't A Junkie Anymore
TTITLE2=What You Gonna Do
TTITLE3=Like You Used To Do
TTITLE4=You've Gotta Move
TTITLE5=Put A Record On
TTITLE6=Funky Monkey
TTITLE7=Beggar By Your Side
TTITLE8=Maternity Orders (Keep On Rollin' In)
EXTD=ARD Appaloosa Records AP 082-2 
EXTT0=
EXTT1=
EXTT2=
EXTT3=
EXTT4=
EXTT5=
EXTT6=
EXTT7=
EXTT8=
PLAYORDER=
